<svg width="159" height="52" viewBox="0 0 159 52" fill="none" xmlns="http://www.w3.org/2000/svg">
<path d="M69.8203 40.9632V8.98694H76.4283V22.8075H88.7916V8.98694H95.3996V40.9632H88.7916V28.6019H76.4283V40.9632H69.8203Z" fill="black"/>
<path d="M99.2971 40.9632V17.5282H105.692V40.9632H99.2971ZM99.2971 15.4251V8.98694H105.692V15.4251H99.2971Z" fill="black"/>
<path d="M109.092 40.9632V17.5282H115.061V23.1509L114.635 22.3354C115.146 20.361 115.985 19.0305 117.15 18.3438C118.344 17.6284 119.75 17.2707 121.371 17.2707H122.735V22.8505H120.731C119.168 22.8505 117.903 23.3369 116.937 24.3098C115.97 25.2541 115.487 26.5989 115.487 28.3444V40.9632H109.092Z" fill="black"/>
<path d="M135.471 41.4782C132.998 41.4782 130.852 40.9346 129.033 39.8472C127.214 38.7313 125.807 37.2434 124.813 35.3834C123.818 33.5235 123.321 31.4633 123.321 29.2028C123.321 26.8564 123.832 24.7676 124.855 22.9363C125.907 21.105 127.314 19.66 129.076 18.6013C130.838 17.5426 132.828 17.0132 135.044 17.0132C136.892 17.0132 138.526 17.3136 139.947 17.9145C141.368 18.4868 142.562 19.3023 143.528 20.361C144.523 21.4198 145.276 22.6502 145.788 24.0523C146.299 25.4257 146.555 26.928 146.555 28.559C146.555 29.0168 146.527 29.4746 146.47 29.9325C146.441 30.3617 146.37 30.7337 146.257 31.0484H128.82V26.3271H142.633L139.606 28.559C139.89 27.3286 139.876 26.2412 139.563 25.297C139.251 24.3241 138.697 23.5658 137.901 23.0222C137.133 22.4499 136.181 22.1637 135.044 22.1637C133.936 22.1637 132.984 22.4356 132.188 22.9792C131.392 23.5229 130.795 24.3241 130.398 25.3828C130 26.4415 129.843 27.7292 129.929 29.2457C129.815 30.562 129.971 31.7208 130.398 32.7223C130.824 33.7238 131.478 34.5107 132.359 35.083C133.24 35.6267 134.305 35.8985 135.556 35.8985C136.693 35.8985 137.659 35.6696 138.455 35.2118C139.279 34.7539 139.919 34.1244 140.373 33.3232L145.489 35.7697C145.035 36.9143 144.31 37.9158 143.315 38.7742C142.349 39.6326 141.198 40.3051 139.862 40.7915C138.526 41.2493 137.062 41.4782 135.471 41.4782Z" fill="black"/>
<path d="M40.9264 22.0386H37.4963V22.0381H25.2212V27.8544H34.9489C33.6949 32.0396 29.809 35.1003 25.222 35.1003C19.6226 35.1003 15.0666 30.544 15.0666 24.9468C15.0666 19.3476 19.6229 14.7932 25.222 14.7932C28.6983 14.7932 31.7712 16.5497 33.6015 19.2214H40.1295C37.8245 13.2344 32.0117 8.97693 25.222 8.97693C16.4159 8.97693 9.25 16.1409 9.25 24.9468C9.25 33.7529 16.4159 40.9169 25.222 40.9169C34.0282 40.9169 41.1919 33.7529 41.1919 24.9468C41.1922 23.9544 41.101 22.9811 40.9264 22.0386Z" fill="black"/>
<path d="M51.5122 8.97717C47.1111 8.97717 43.1172 10.7686 40.2265 13.6572C41.2696 15.0416 42.1205 16.5714 42.7527 18.2116L43.1384 19.21C44.9706 16.5442 48.0397 14.7935 51.5122 14.7935C57.1094 14.7935 61.6657 19.3476 61.6657 24.947C61.6657 30.5443 57.1094 35.1006 51.5122 35.1006C48.0261 35.1006 44.9453 33.3363 43.1172 30.6529C42.4677 32.6848 41.4829 34.5653 40.2227 36.2327C43.1153 39.1254 47.1092 40.9169 51.5124 40.9169C60.3186 40.9169 67.4823 33.7529 67.4823 24.9468C67.482 16.1409 60.3183 8.97717 51.5122 8.97717Z" fill="#FF6A00"/>
<rect x="2" y="2" width="155" height="47.1565" rx="23.5783" stroke="#FF6A00" stroke-width="4"/>
</svg>
