<svg width="142" height="34" viewBox="0 0 142 34" fill="none" xmlns="http://www.w3.org/2000/svg">
<path d="M40.5647 26.4641V8.78502H44.7024V11.6814C45.1789 10.6031 45.8309 9.81317 46.6584 9.31163C47.4859 8.8101 48.4138 8.55933 49.4419 8.55933C49.793 8.55933 50.1064 8.58441 50.3823 8.63456C50.6581 8.65964 50.8713 8.70979 51.0217 8.78502V12.8851C50.6707 12.8098 50.3196 12.7471 49.9685 12.697C49.6174 12.6468 49.2664 12.6218 48.9153 12.6218C47.7618 12.6218 46.7963 13.0857 46.0189 14.0135C45.2415 14.9163 44.8529 16.2203 44.8529 17.9255V26.4641H40.5647Z" fill="black"/>
<path d="M61.052 26.8403C59.1964 26.8403 57.5538 26.4641 56.1245 25.7118C54.7202 24.9344 53.6042 23.8561 52.7767 22.4769C51.9743 21.0977 51.573 19.4802 51.573 17.6246C51.573 15.7689 51.9743 14.1514 52.7767 12.7722C53.6042 11.393 54.7202 10.3272 56.1245 9.57494C57.5538 8.79756 59.1964 8.40887 61.052 8.40887C62.3309 8.40887 63.497 8.59694 64.5502 8.97309C65.6035 9.32417 66.5689 9.83824 67.4466 10.5153L65.9044 13.7502C65.127 13.1985 64.3245 12.7973 63.497 12.5465C62.6946 12.2707 61.8796 12.1328 61.052 12.1328C60.0239 12.1328 59.1337 12.3585 58.3814 12.8098C57.6291 13.2361 57.0398 13.8631 56.6135 14.6906C56.1871 15.493 55.974 16.471 55.974 17.6246C55.974 18.753 56.1871 19.731 56.6135 20.5585C57.0398 21.3861 57.6291 22.0255 58.3814 22.4769C59.1337 22.9032 60.0239 23.1164 61.052 23.1164C61.8796 23.1164 62.6946 22.991 63.497 22.7402C64.3245 22.4644 65.127 22.0506 65.9044 21.4989L67.4466 24.7338C66.5689 25.4109 65.6035 25.9375 64.5502 26.3137C63.497 26.6647 62.3309 26.8403 61.052 26.8403Z" fill="#F9791D"/>
<path d="M70.3027 26.4641V8.78502H74.4404V11.1924C74.967 10.3398 75.7067 9.66271 76.6597 9.16117C77.6126 8.65964 78.7786 8.40887 80.1579 8.40887C82.1891 8.40887 83.7689 8.98563 84.8974 10.1392C86.0509 11.2927 86.6277 13.0731 86.6277 15.4805V26.4641H82.3395V16.12C82.3395 14.7407 82.0511 13.7377 81.4744 13.1108C80.9227 12.4588 80.0701 12.1328 78.9166 12.1328C77.5624 12.1328 76.4967 12.5967 75.7193 13.5245C74.967 14.4273 74.5908 15.6937 74.5908 17.3236V26.4641H70.3027Z" fill="black"/>
<path d="M97.5313 26.6898C95.5252 26.6898 94.0582 26.2384 93.1304 25.3357C92.2025 24.4329 91.7386 23.0286 91.7386 21.1228V12.3585H88.0147V8.78502H91.7386V3.7446H96.0643V8.78502H100.503V12.3585H96.0643V20.7466C96.0643 21.524 96.265 22.1133 96.6662 22.5145C97.0674 22.9158 97.6692 23.1164 98.4717 23.1164C98.7726 23.1164 99.1237 23.1038 99.5249 23.0788C99.9512 23.0537 100.277 23.0161 100.503 22.9659V26.3513C100.152 26.4516 99.7005 26.5268 99.1488 26.577C98.6222 26.6522 98.083 26.6898 97.5313 26.6898Z" fill="black"/>
<path d="M111.133 26.6898C109.127 26.6898 107.66 26.2384 106.732 25.3357C105.804 24.4329 105.34 23.0286 105.34 21.1228V12.3585H101.616V8.78502H105.34V3.7446H109.666V8.78502H114.105V12.3585H109.666V20.7466C109.666 21.524 109.867 22.1133 110.268 22.5145C110.669 22.9158 111.271 23.1164 112.073 23.1164C112.374 23.1164 112.725 23.1038 113.127 23.0788C113.553 23.0537 113.879 23.0161 114.105 22.9659V26.3513C113.754 26.4516 113.302 26.5268 112.75 26.577C112.224 26.6522 111.685 26.6898 111.133 26.6898Z" fill="black"/>
<path d="M116.948 26.4641V8.78502H121.236V26.4641H116.948ZM119.092 5.55012C118.315 5.55012 117.701 5.32443 117.249 4.87305C116.798 4.42167 116.572 3.8449 116.572 3.14276C116.572 2.44061 116.798 1.87638 117.249 1.45008C117.701 0.998695 118.315 0.773005 119.092 0.773005C119.845 0.773005 120.447 0.998695 120.898 1.45008C121.374 1.90146 121.613 2.47822 121.613 3.18037C121.613 3.88252 121.374 4.45928 120.898 4.91067C120.447 5.33697 119.845 5.55012 119.092 5.55012Z" fill="black"/>
<path d="M123.381 26.4641L129.963 17.3236L123.757 8.78502H128.647L132.671 14.7282L136.734 8.78502H141.624L135.417 17.3236L142 26.4641H137.11L132.671 20.1824L128.27 26.4641H123.381Z" fill="black"/>
<path d="M14.4466 25.1473C13.9387 25.1169 13.424 25.101 12.9024 25.0997C10.5473 25.1078 8.20226 25.4093 5.92035 25.9974C5.12358 26.2005 4.34598 26.4321 3.58754 26.6919V9.89868C4.897 9.27242 6.26442 8.77798 7.66997 8.42254C9.37777 7.97999 11.1331 7.75159 12.8962 7.74251C13.4274 7.74251 13.9428 7.76532 14.4425 7.81093V7.87728C15.0311 8.04981 15.629 8.18825 16.2332 8.29193C16.8096 8.38868 17.4065 8.45778 18.0239 8.49925V4.81097C16.3524 4.34381 14.6244 4.11492 12.8901 4.13094C10.8319 4.13975 8.78273 4.40506 6.78899 4.92084C4.39782 5.51484 2.10907 6.4696 0 7.75289V32.3415C2.10907 31.0582 4.39782 30.1034 6.78899 29.5094C8.78292 28.9946 10.832 28.7294 12.8901 28.7195C13.4158 28.7195 13.9305 28.7382 14.4343 28.7755L14.4466 25.1473Z" fill="#F9791D"/>
<path d="M25.9761 7.74855C23.9373 8.26279 21.8423 8.52744 19.7381 8.53655C19.2006 8.53655 18.6743 8.51788 18.1592 8.48055C17.5293 8.43493 16.919 8.36581 16.3283 8.27318C15.7106 8.16949 15.0993 8.03101 14.4975 7.85844V32.4441C16.2065 32.9116 17.9733 33.1406 19.7465 33.1243C21.8507 33.1151 23.9457 32.8504 25.9845 32.3363C28.4244 31.7394 30.7599 30.7845 32.9132 29.5036V4.9138C30.7579 6.197 28.4193 7.15262 25.9761 7.74855ZM29.2557 27.3532C27.9159 27.9786 26.5171 28.4725 25.0795 28.8276C23.3343 29.2712 21.5402 29.4996 19.7381 29.5078C19.1943 29.5078 18.6652 29.485 18.155 29.4414V12.1033C18.6736 12.1365 19.2048 12.151 19.7339 12.151C22.1419 12.1437 24.5397 11.8421 26.8726 11.2531C27.6859 11.0499 28.4809 10.8183 29.2578 10.5584L29.2557 27.3532Z" fill="black"/>
<path d="M121.857 2.95468C121.857 4.46947 120.629 5.69745 119.114 5.69745C117.6 5.69745 116.372 4.46947 116.372 2.95468C116.372 1.43989 117.6 0.211914 119.114 0.211914C120.629 0.211914 121.857 1.43989 121.857 2.95468Z" fill="#F9791D"/>
<rect x="70.9199" y="15.8848" width="3.91824" height="15.2811" transform="rotate(90 70.9199 15.8848)" fill="url(#paint0_linear_557_286)"/>
<defs>
<linearGradient id="paint0_linear_557_286" x1="70.9199" y1="29.2068" x2="70.9199" y2="17.8439" gradientUnits="userSpaceOnUse">
<stop stop-color="#F9791D"/>
<stop offset="1"/>
</linearGradient>
</defs>
</svg>
