<svg width="1124" height="261" viewBox="0 0 1124 261" fill="none" xmlns="http://www.w3.org/2000/svg">
<path d="M320.834 208.317V68.4898H353.559V91.3977C357.328 82.8692 362.484 76.6216 369.03 72.6549C375.575 68.6881 382.913 66.7048 391.045 66.7048C393.822 66.7048 396.301 66.9031 398.482 67.2998C400.664 67.4981 402.35 67.8948 403.54 68.4898V100.918C400.763 100.323 397.987 99.827 395.21 99.4303C392.433 99.0336 389.657 98.8353 386.88 98.8353C377.756 98.8353 370.12 102.504 363.972 109.843C357.824 116.983 354.749 127.297 354.749 140.783V208.317H320.834Z" fill="white"/>
<path d="M482.871 211.292C468.195 211.292 455.204 208.317 443.898 202.367C432.792 196.218 423.966 187.69 417.42 176.781C411.074 165.873 407.9 153.08 407.9 138.403C407.9 123.726 411.074 110.934 417.42 100.025C423.966 89.1168 432.792 80.6875 443.898 74.7374C455.204 68.589 468.195 65.5148 482.871 65.5148C492.987 65.5148 502.209 67.0023 510.539 69.9773C518.87 72.754 526.505 76.8199 533.447 82.175L521.25 107.76C515.101 103.397 508.754 100.224 502.209 98.2403C495.862 96.0586 489.417 94.9677 482.871 94.9677C474.74 94.9677 467.699 96.7527 461.749 100.323C455.799 103.695 451.138 108.653 447.766 115.198C444.394 121.545 442.708 129.28 442.708 138.403C442.708 147.328 444.394 155.064 447.766 161.609C451.138 168.154 455.799 173.211 461.749 176.781C467.699 180.153 474.74 181.839 482.871 181.839C489.417 181.839 495.862 180.847 502.209 178.864C508.754 176.682 515.101 173.41 521.25 169.046L533.447 194.632C526.505 199.987 518.87 204.152 510.539 207.127C502.209 209.904 492.987 211.292 482.871 211.292Z" fill="white"/>
<path d="M556.037 208.317V68.4898H588.762V87.5301C592.927 80.7867 598.778 75.4316 606.315 71.4649C613.852 67.4981 623.074 65.5148 633.983 65.5148C650.048 65.5148 662.543 70.0765 671.468 79.2C680.592 88.3234 685.154 102.405 685.154 121.446V208.317H651.238V126.503C651.238 115.595 648.957 107.661 644.396 102.703C640.032 97.5461 633.289 94.9677 624.165 94.9677C613.455 94.9677 605.026 98.6369 598.877 105.975C592.927 113.115 589.952 123.131 589.952 136.023V208.317H556.037Z" fill="white"/>
<path d="M771.393 210.102C755.526 210.102 743.923 206.532 736.585 199.392C729.246 192.252 725.577 181.145 725.577 166.071V96.7527H696.124V68.4898H725.577V28.6242H759.79V68.4898H794.896V96.7527H759.79V163.096C759.79 169.245 761.377 173.906 764.55 177.079C767.724 180.252 772.484 181.839 778.83 181.839C781.21 181.839 783.987 181.74 787.161 181.542C790.532 181.343 793.111 181.046 794.896 180.649V207.424C792.119 208.218 788.549 208.813 784.185 209.209C780.02 209.804 775.756 210.102 771.393 210.102Z" fill="white"/>
<path d="M878.971 210.102C863.104 210.102 851.501 206.532 844.163 199.392C836.824 192.252 833.155 181.145 833.155 166.071V96.7527H803.702V68.4898H833.155V28.6242H867.368V68.4898H902.474V96.7527H867.368V163.096C867.368 169.245 868.955 173.906 872.128 177.079C875.302 180.252 880.062 181.839 886.408 181.839C888.788 181.839 891.565 181.74 894.739 181.542C898.11 181.343 900.689 181.046 902.474 180.649V207.424C899.697 208.218 896.127 208.813 891.763 209.209C887.598 209.804 883.334 210.102 878.971 210.102Z" fill="white"/>
<path d="M924.966 208.317V68.4898H958.881V208.317H924.966ZM941.923 42.9044C935.775 42.9044 930.916 41.1194 927.345 37.5494C923.775 33.9793 921.99 29.4176 921.99 23.8641C921.99 18.3107 923.775 13.8482 927.345 10.4764C930.916 6.90639 935.775 5.12136 941.923 5.12136C947.873 5.12136 952.633 6.90639 956.203 10.4764C959.972 14.0465 961.856 18.6082 961.856 24.1616C961.856 29.7151 959.972 34.2768 956.203 37.8469C952.633 41.2186 947.873 42.9044 941.923 42.9044Z" fill="white"/>
<path d="M975.839 208.317L1027.9 136.023L978.814 68.4898H1017.49L1049.32 115.496L1081.45 68.4898H1120.13L1071.04 136.023L1123.1 208.317H1084.43L1049.32 158.634L1014.51 208.317H975.839Z" fill="white"/>
<path d="M114.261 197.902C110.244 197.662 106.173 197.536 102.047 197.525C83.4206 197.59 64.8731 199.975 46.8251 204.625C40.5233 206.232 34.3731 208.063 28.3745 210.119V77.298C38.7313 72.3447 49.5465 68.4341 60.6632 65.6229C74.1705 62.1227 88.0535 60.3162 101.998 60.2444C106.2 60.2444 110.276 60.4248 114.229 60.7856V61.3103C118.884 62.6749 123.612 63.7699 128.391 64.5899C132.95 65.3551 137.671 65.9017 142.554 66.2296V37.0583C129.334 33.3635 115.667 31.5531 101.95 31.6799C85.6716 31.7495 69.4642 33.8479 53.6954 37.9273C34.7831 42.6254 16.681 50.1768 0 60.3265V254.802C16.681 244.652 34.7831 237.101 53.6954 232.403C69.4657 228.331 85.6721 226.233 101.95 226.155C106.108 226.155 110.179 226.303 114.164 226.598L114.261 197.902Z" fill="white"/>
<path d="M205.449 60.2922C189.325 64.3594 172.755 66.4526 156.112 66.5246C151.861 66.5246 147.698 66.3769 143.624 66.0817C138.642 65.7209 133.816 65.1742 129.144 64.4416C124.258 63.6214 119.423 62.5263 114.663 61.1614V255.614C128.18 259.312 142.154 261.122 156.179 260.994C172.821 260.921 189.391 258.827 205.516 254.761C224.814 250.04 243.286 242.488 260.316 232.357V37.8717C243.27 48.0207 224.774 55.5789 205.449 60.2922ZM231.388 215.349C220.792 220.295 209.729 224.201 198.359 227.01C184.555 230.518 170.365 232.325 156.112 232.39C151.811 232.39 147.627 232.209 143.591 231.865V94.7347C147.693 94.9971 151.894 95.1119 156.079 95.1119C175.124 95.0542 194.089 92.6688 212.54 88.0101C218.972 86.4028 225.261 84.5714 231.405 82.5158L231.388 215.349Z" fill="white"/>
<path d="M963.791 22.3766C963.791 34.3574 954.078 44.0697 942.098 44.0697C930.117 44.0697 920.404 34.3574 920.404 22.3766C920.404 10.3959 930.117 0.683594 942.098 0.683594C954.078 0.683594 963.791 10.3959 963.791 22.3766Z" fill="white"/>
<rect x="560.917" y="124.645" width="30.9901" height="120.861" transform="rotate(90 560.917 124.645)" fill="white"/>
</svg>
