<svg width="142" height="33" viewBox="0 0 142 33" fill="none" xmlns="http://www.w3.org/2000/svg">
<path d="M40.5647 26.2522V8.5731H44.7024V11.4695C45.1789 10.3912 45.8309 9.60125 46.6584 9.09972C47.4859 8.59818 48.4138 8.34742 49.4419 8.34742C49.793 8.34742 50.1064 8.37249 50.3823 8.42264C50.6581 8.44772 50.8713 8.49787 51.0217 8.5731V12.6732C50.6707 12.5979 50.3196 12.5352 49.9685 12.4851C49.6174 12.4349 49.2664 12.4098 48.9153 12.4098C47.7618 12.4098 46.7963 12.8738 46.0189 13.8016C45.2415 14.7044 44.8529 16.0084 44.8529 17.7136V26.2522H40.5647Z" fill="white"/>
<path d="M61.052 26.6283C59.1964 26.6283 57.5538 26.2522 56.1245 25.4999C54.7202 24.7225 53.6042 23.6442 52.7767 22.265C51.9743 20.8858 51.573 19.2683 51.573 17.4127C51.573 15.557 51.9743 13.9395 52.7767 12.5603C53.6042 11.1811 54.7202 10.1153 56.1245 9.36302C57.5538 8.58564 59.1964 8.19695 61.052 8.19695C62.3309 8.19695 63.497 8.38503 64.5502 8.76118C65.6035 9.11225 66.5689 9.62633 67.4466 10.3034L65.9044 13.5383C65.127 12.9866 64.3245 12.5854 63.497 12.3346C62.6946 12.0588 61.8796 11.9208 61.052 11.9208C60.0239 11.9208 59.1337 12.1465 58.3814 12.5979C57.6291 13.0242 57.0398 13.6511 56.6135 14.4787C56.1871 15.2811 55.974 16.2591 55.974 17.4127C55.974 18.5411 56.1871 19.5191 56.6135 20.3466C57.0398 21.1742 57.6291 21.8136 58.3814 22.265C59.1337 22.6913 60.0239 22.9045 61.052 22.9045C61.8796 22.9045 62.6946 22.7791 63.497 22.5283C64.3245 22.2525 65.127 21.8387 65.9044 21.287L67.4466 24.5219C66.5689 25.199 65.6035 25.7256 64.5502 26.1017C63.497 26.4528 62.3309 26.6283 61.052 26.6283Z" fill="white"/>
<path d="M70.3027 26.2522V8.5731H74.4404V10.9805C74.967 10.1279 75.7067 9.45079 76.6597 8.94926C77.6126 8.44772 78.7786 8.19695 80.1579 8.19695C82.1891 8.19695 83.7689 8.77372 84.8974 9.92725C86.0509 11.0808 86.6277 12.8612 86.6277 15.2686V26.2522H82.3395V15.908C82.3395 14.5288 82.0511 13.5258 81.4744 12.8988C80.9227 12.2468 80.0701 11.9208 78.9166 11.9208C77.5624 11.9208 76.4967 12.3848 75.7193 13.3126C74.967 14.2154 74.5908 15.4817 74.5908 17.1117V26.2522H70.3027Z" fill="white"/>
<path d="M97.5313 26.4779C95.5252 26.4779 94.0582 26.0265 93.1304 25.1237C92.2025 24.221 91.7386 22.8167 91.7386 20.9109V12.1465H88.0147V8.5731H91.7386V3.53268H96.0643V8.5731H100.503V12.1465H96.0643V20.5347C96.0643 21.3121 96.265 21.9014 96.6662 22.3026C97.0674 22.7038 97.6692 22.9045 98.4717 22.9045C98.7726 22.9045 99.1237 22.8919 99.5249 22.8668C99.9512 22.8418 100.277 22.8041 100.503 22.754V26.1394C100.152 26.2397 99.7005 26.3149 99.1488 26.365C98.6222 26.4403 98.083 26.4779 97.5313 26.4779Z" fill="white"/>
<path d="M111.133 26.4779C109.127 26.4779 107.66 26.0265 106.732 25.1237C105.804 24.221 105.34 22.8167 105.34 20.9109V12.1465H101.616V8.5731H105.34V3.53268H109.666V8.5731H114.105V12.1465H109.666V20.5347C109.666 21.3121 109.867 21.9014 110.268 22.3026C110.669 22.7038 111.271 22.9045 112.073 22.9045C112.374 22.9045 112.725 22.8919 113.127 22.8668C113.553 22.8418 113.879 22.8041 114.105 22.754V26.1394C113.754 26.2397 113.302 26.3149 112.75 26.365C112.224 26.4403 111.685 26.4779 111.133 26.4779Z" fill="white"/>
<path d="M116.948 26.2522V8.5731H121.236V26.2522H116.948ZM119.092 5.33821C118.315 5.33821 117.701 5.11252 117.249 4.66114C116.798 4.20976 116.572 3.63299 116.572 2.93084C116.572 2.22869 116.798 1.66447 117.249 1.23816C117.701 0.786781 118.315 0.561091 119.092 0.561091C119.845 0.561091 120.447 0.786781 120.898 1.23816C121.374 1.68954 121.613 2.26631 121.613 2.96846C121.613 3.67061 121.374 4.24737 120.898 4.69875C120.447 5.12505 119.845 5.33821 119.092 5.33821Z" fill="white"/>
<path d="M123.381 26.2522L129.963 17.1117L123.757 8.5731H128.647L132.671 14.5163L136.734 8.5731H141.624L135.417 17.1117L142 26.2522H137.11L132.671 19.9705L128.27 26.2522H123.381Z" fill="white"/>
<path d="M14.4466 24.9354C13.9387 24.905 13.424 24.8891 12.9024 24.8877C10.5473 24.8959 8.20226 25.1974 5.92035 25.7855C5.12358 25.9886 4.34598 26.2201 3.58754 26.48V9.68677C4.897 9.0605 6.26442 8.56607 7.66997 8.21063C9.37777 7.76807 11.1331 7.53967 12.8962 7.5306C13.4274 7.5306 13.9428 7.55341 14.4425 7.59902V7.66536C15.0311 7.8379 15.629 7.97634 16.2332 8.08001C16.8096 8.17676 17.4065 8.24587 18.0239 8.28734V4.59905C16.3524 4.1319 14.6244 3.903 12.8901 3.91902C10.8319 3.92784 8.78273 4.19314 6.78899 4.70893C4.39782 5.30293 2.10907 6.25769 0 7.54098V32.1296C2.10907 30.8463 4.39782 29.8915 6.78899 29.2975C8.78292 28.7827 10.832 28.5174 12.8901 28.5076C13.4158 28.5076 13.9305 28.5263 14.4343 28.5636L14.4466 24.9354Z" fill="white"/>
<path d="M25.9761 7.53663C23.9373 8.05088 21.8423 8.31553 19.7381 8.32463C19.2006 8.32463 18.6743 8.30596 18.1592 8.26864C17.5293 8.22302 16.919 8.15389 16.3283 8.06127C15.7106 7.95757 15.0993 7.8191 14.4975 7.64653V32.2322C16.2065 32.6997 17.9733 32.9287 19.7465 32.9124C21.8507 32.9032 23.9457 32.6385 25.9845 32.1244C28.4244 31.5275 30.7599 30.5726 32.9132 29.2917V4.70189C30.7579 5.98509 28.4193 6.94071 25.9761 7.53663ZM29.2557 27.1413C27.9159 27.7667 26.5171 28.2605 25.0795 28.6157C23.3343 29.0592 21.5402 29.2877 19.7381 29.2959C19.1943 29.2959 18.6652 29.2731 18.155 29.2295V11.8914C18.6736 11.9246 19.2048 11.9391 19.7339 11.9391C22.1419 11.9318 24.5397 11.6302 26.8726 11.0412C27.6859 10.8379 28.4809 10.6064 29.2578 10.3465L29.2557 27.1413Z" fill="white"/>
<path d="M121.857 2.74277C121.857 4.25756 120.629 5.48553 119.114 5.48553C117.6 5.48553 116.372 4.25756 116.372 2.74277C116.372 1.22798 117.6 0 119.114 0C120.629 0 121.857 1.22798 121.857 2.74277Z" fill="white"/>
<rect x="70.9199" y="15.6729" width="3.91824" height="15.2811" transform="rotate(90 70.9199 15.6729)" fill="white"/>
</svg>
