<svg width="20" height="20" viewBox="0 0 20 20" fill="none" xmlns="http://www.w3.org/2000/svg">
<path fill-rule="evenodd" clip-rule="evenodd" d="M10 0C4.48 0 0 4.48 0 10C0 15.52 4.48 20 10 20C15.52 20 20 15.52 20 10C20 4.48 15.52 0 10 0ZM11.4097 16.09V18H8.73973V16.07C7.02973 15.71 5.57973 14.61 5.46973 12.67H7.42973C7.52973 13.72 8.24973 14.54 10.0797 14.54C12.0397 14.54 12.4797 13.56 12.4797 12.95C12.4797 12.12 12.0397 11.34 9.80973 10.81C7.32973 10.21 5.62973 9.19 5.62973 7.14C5.62973 5.42 7.01973 4.3 8.73973 3.93V2H11.4097V3.95C13.2697 4.4 14.1997 5.81 14.2597 7.34H12.2997C12.2497 6.23 11.6597 5.47 10.0797 5.47C8.57973 5.47 7.67973 6.15 7.67973 7.11C7.67973 7.95 8.32973 8.5 10.3497 9.02C12.3697 9.54 14.5297 10.41 14.5297 12.93C14.5197 14.76 13.1497 15.76 11.4097 16.09Z" fill="#FF6A00"/>
</svg>
