<svg width="32" height="32" viewBox="0 0 32 32" fill="none" xmlns="http://www.w3.org/2000/svg">
<path d="M16.0013 29.3333C23.3651 29.3333 29.3346 23.3638 29.3346 16C29.3346 8.63619 23.3651 2.66666 16.0013 2.66666C8.63751 2.66666 2.66797 8.63619 2.66797 16C2.66797 23.3638 8.63751 29.3333 16.0013 29.3333Z" stroke="#F9F9F9" stroke-width="1.5" stroke-linecap="round" stroke-linejoin="round"/>
<path d="M10.6797 19.3467C10.9197 19.7467 11.213 20.1201 11.5463 20.4534C13.9997 22.9067 17.9863 22.9067 20.453 20.4534C21.453 19.4534 22.0263 18.1867 22.213 16.8933" stroke="#F9F9F9" stroke-width="1.5" stroke-linecap="round" stroke-linejoin="round"/>
<path d="M9.78516 15.1067C9.97182 13.8 10.5452 12.5466 11.5452 11.5466C13.9985 9.09327 17.9852 9.09327 20.4518 11.5466C20.7985 11.8933 21.0785 12.2666 21.3185 12.6533" stroke="#F9F9F9" stroke-width="1.5" stroke-linecap="round" stroke-linejoin="round"/>
<path d="M10.4258 22.9067V19.3467H13.9858" stroke="#F9F9F9" stroke-width="1.5" stroke-linecap="round" stroke-linejoin="round"/>
<path d="M21.5717 9.09332V12.6533H18.0117" stroke="#F9F9F9" stroke-width="1.5" stroke-linecap="round" stroke-linejoin="round"/>
</svg>
